{"title":"Naruto Shippuden 97 DVBrip xvid audio castellano","uid":6216050,"size":196249600,"categoryP":"video","categoryS":"tv_shows","magnet":"?xt=urn:btih:2acc187f5951ba27ccd10e92f9c8c5defa73d187&amp;dn=Naruto+Shippuden+97+DVBrip+xvid+audio+castellano&amp;tr=udp%3A%2F%2Ftracker.openbittorrent.com%3A80&amp;tr=udp%3A%2F%2Fopen.demonii.com%3A1337&amp;tr=udp%3A%2F%2Ftracker.coppersurfer.tk%3A6969&amp;tr=udp%3A%2F%2Fexodus.desync.com%3A6969","seeders":0,"leechers":0,"uploader":null,"files":1,"time":1299160096,"description":"Naruto Shippuden 97 DVBrip xvid audio castellano\n\nFormat                           : AVI\nFormat/Info                      : Audio Video Interleave\nFile size                        : 187 MiB\nDuration                         : 20mn 5s\nOverall bit rate                 : 1 303 Kbps\n\n\nVideo\nID                               : 0\nFormat                           : MPEG-4 Visual\nFormat profile                   : Advanced Simple@L5\nFormat settings, BVOP            : Yes\nFormat settings, QPel            : No\nFormat settings, GMC             : No warppoints\nFormat settings, Matrix          : Custom\nMuxing mode                      : Packed bitstream\nCodec ID                         : XVID\nCodec ID/Hint                    : XviD\nDuration                         : 20mn 5s\nBit rate                         : 1 167 Kbps\nWidth                            : 704 pixels\nHeight                           : 400 pixels\nDisplay aspect ratio             : 16:9\nFrame rate                       : 25.000 fps\nColor space                      : YUV\nChroma subsampling               : 4:2:0\nBit depth                        : 8 bits\nScan type                        : Progressive\nCompression mode                 : Lossy\nBits/(Pixel*Frame)               : 0.166\nStream size                      : 168 MiB (90%)\nWriting library                  : XviD 62\n\nAudio\nID                               : 1\nFormat                           : MPEG Audio\nFormat version                   : Version 1\nFormat profile                   : Layer 2\nCodec ID                         : 50\nDuration                         : 20mn 5s\nBit rate mode                    : Constant\nBit rate                         : 128 Kbps\nChannel(s)                       : 2 channels\nSampling rate                    : 48.0 KHz\nCompression mode                 : Lossy\nStream size                      : 18.4 MiB (10%)\nAlignment                        : Aligned on interleaves\nInterleave, duration             : 80 ms (2.00 video frames)\nInterleave, preload duration     : 504 ms","torrent":{"xt":"urn:btih:2acc187f5951ba27ccd10e92f9c8c5defa73d187","amp;dn":"Naruto+Shippuden+97+DVBrip+xvid+audio+castellano","amp;tr":["udp%3A%2F%2Ftracker.openbittorrent.com%3A80","udp%3A%2F%2Fopen.demonii.com%3A1337","udp%3A%2F%2Ftracker.coppersurfer.tk%3A6969","udp%3A%2F%2Fexodus.desync.com%3A6969"],"infoHash":"2acc187f5951ba27ccd10e92f9c8c5defa73d187","infoHashBuffer":{"type":"Buffer","data":[42,204,24,127,89,81,186,39,204,209,14,146,249,200,197,222,250,115,209,135]},"announce":[],"urlList":[]}}